<svg width="641" height="336" viewBox="0 0 641 336" fill="none" xmlns="http://www.w3.org/2000/svg">
<g clip-path="url(#clip0_9_232)">
<mask id="mask0_9_232" style="mask-type:luminance" maskUnits="userSpaceOnUse" x="23" y="18" width="112" height="112">
<path d="M23 18.0003H135V130H23V18.0003Z" fill="white"/>
</mask>
<g mask="url(#mask0_9_232)">
<path d="M119 74.0001C119 51.9088 101.091 34.0002 78.9999 34.0002C56.9086 34.0002 39 51.9088 39 74.0001C39 92.7593 51.9144 108.5 69.3369 112.822V86.2234H61.0886V74.0001H69.3369V68.7331C69.3369 55.1184 75.4981 48.808 88.8645 48.808C91.3986 48.808 95.7712 49.3048 97.56 49.8018V60.8824C96.6158 60.783 94.9761 60.7333 92.9389 60.7333C86.38 60.7333 83.8458 63.2177 83.8458 69.6772V74.0001H96.9112L94.6667 86.2234H83.8458V113.707C103.651 111.315 119 94.4509 119 74.0001Z" fill="#0866FF"/>
<path d="M94.6668 86.2234L96.9114 74.0001H83.846V69.6771C83.846 63.2176 86.3801 60.7333 92.9389 60.7333C94.9762 60.7333 96.6159 60.7829 97.56 60.8822V49.8018C95.7712 49.3048 91.3986 48.8079 88.8645 48.8079C75.4983 48.8079 69.3369 55.1184 69.3369 68.7331V74.0001H61.0886V86.2234H69.3369V112.822C72.4981 113.606 75.743 114.001 78.9999 114C80.6406 114 82.2572 113.899 83.846 113.707V86.2234H94.6668Z" fill="white"/>
</g>
</g>
<g clip-path="url(#clip1_9_232)">
<path d="M240.013 34C223.313 34 218.429 34.0172 217.48 34.0958C214.053 34.381 211.92 34.9207 209.597 36.0775C207.807 36.9671 206.395 37.9978 205.001 39.4428C202.463 42.0782 200.925 45.3205 200.368 49.1741C200.097 51.0451 200.018 51.4267 200.002 60.9831C199.996 64.1688 200.002 68.3608 200.002 73.9844C200.002 90.6748 200.021 95.5553 200.101 96.5032C200.378 99.8388 200.901 101.938 202.008 104.233C204.125 108.627 208.167 111.926 212.93 113.157C214.578 113.582 216.4 113.816 218.737 113.926C219.728 113.969 229.825 114 239.927 114C250.03 114 260.133 113.988 261.099 113.939C263.806 113.811 265.378 113.6 267.116 113.151C271.909 111.914 275.878 108.664 278.037 104.208C279.123 101.968 279.674 99.7896 279.923 96.6281C279.977 95.9387 280 84.949 280 73.9738C280 62.9969 279.975 52.0275 279.921 51.3381C279.669 48.1255 279.118 45.9651 277.997 43.6823C277.077 41.8131 276.056 40.417 274.573 38.9899C271.927 36.4618 268.691 34.9231 264.834 34.3668C262.965 34.0965 262.594 34.0166 253.032 34H240.013Z" fill="url(#paint0_radial_9_232)"/>
<path d="M240.013 34C223.313 34 218.429 34.0172 217.48 34.0958C214.053 34.381 211.92 34.9207 209.597 36.0775C207.807 36.9671 206.395 37.9978 205.001 39.4428C202.463 42.0782 200.925 45.3205 200.368 49.1741C200.097 51.0451 200.018 51.4267 200.002 60.9831C199.996 64.1688 200.002 68.3608 200.002 73.9844C200.002 90.6748 200.021 95.5553 200.101 96.5032C200.378 99.8388 200.901 101.938 202.008 104.233C204.125 108.627 208.167 111.926 212.93 113.157C214.578 113.582 216.4 113.816 218.737 113.926C219.728 113.969 229.825 114 239.927 114C250.03 114 260.133 113.988 261.099 113.939C263.806 113.811 265.378 113.6 267.116 113.151C271.909 111.914 275.878 108.664 278.037 104.208C279.123 101.968 279.674 99.7896 279.923 96.6281C279.977 95.9387 280 84.949 280 73.9738C280 62.9969 279.975 52.0275 279.921 51.3381C279.669 48.1255 279.118 45.9651 277.997 43.6823C277.077 41.8131 276.056 40.417 274.573 38.9899C271.927 36.4618 268.691 34.9231 264.834 34.3668C262.965 34.0965 262.594 34.0166 253.032 34H240.013Z" fill="url(#paint1_radial_9_232)"/>
<path d="M240.013 34C223.313 34 218.429 34.0172 217.48 34.0958C214.053 34.381 211.92 34.9207 209.597 36.0775C207.807 36.9671 206.395 37.9978 205.001 39.4428C202.463 42.0782 200.925 45.3205 200.368 49.1741C200.097 51.0451 200.018 51.4267 200.002 60.9831C199.996 64.1688 200.002 68.3608 200.002 73.9844C200.002 90.6748 200.021 95.5553 200.101 96.5032C200.378 99.8388 200.901 101.938 202.008 104.233C204.125 108.627 208.167 111.926 212.93 113.157C214.578 113.582 216.4 113.816 218.737 113.926C219.728 113.969 229.825 114 239.927 114C250.03 114 260.133 113.988 261.099 113.939C263.806 113.811 265.378 113.6 267.116 113.151C271.909 111.914 275.878 108.664 278.037 104.208C279.123 101.968 279.674 99.7896 279.923 96.6281C279.977 95.9387 280 84.949 280 73.9738C280 62.9969 279.975 52.0275 279.921 51.3381C279.669 48.1255 279.118 45.9651 277.997 43.6823C277.077 41.8131 276.056 40.417 274.573 38.9899C271.927 36.4618 268.691 34.9231 264.834 34.3668C262.965 34.0965 262.594 34.0166 253.032 34H240.013Z" fill="url(#paint2_radial_9_232)"/>
<path d="M240.013 34C223.313 34 218.429 34.0172 217.48 34.0958C214.053 34.381 211.92 34.9207 209.597 36.0775C207.807 36.9671 206.395 37.9978 205.001 39.4428C202.463 42.0782 200.925 45.3205 200.368 49.1741C200.097 51.0451 200.018 51.4267 200.002 60.9831C199.996 64.1688 200.002 68.3608 200.002 73.9844C200.002 90.6748 200.021 95.5553 200.101 96.5032C200.378 99.8388 200.901 101.938 202.008 104.233C204.125 108.627 208.167 111.926 212.93 113.157C214.578 113.582 216.4 113.816 218.737 113.926C219.728 113.969 229.825 114 239.927 114C250.03 114 260.133 113.988 261.099 113.939C263.806 113.811 265.378 113.6 267.116 113.151C271.909 111.914 275.878 108.664 278.037 104.208C279.123 101.968 279.674 99.7896 279.923 96.6281C279.977 95.9387 280 84.949 280 73.9738C280 62.9969 279.975 52.0275 279.921 51.3381C279.669 48.1255 279.118 45.9651 277.997 43.6823C277.077 41.8131 276.056 40.417 274.573 38.9899C271.927 36.4618 268.691 34.9231 264.834 34.3668C262.965 34.0965 262.594 34.0166 253.032 34H240.013Z" fill="url(#paint3_radial_9_232)"/>
<path d="M240.016 44.2722C231.938 44.2722 230.924 44.3075 227.751 44.4518C224.585 44.5969 222.424 45.0976 220.532 45.8327C218.576 46.5916 216.917 47.6075 215.263 49.2599C213.609 50.912 212.592 52.5702 211.83 54.5247C211.092 56.415 210.591 58.5754 210.448 61.7384C210.306 64.909 210.269 65.9225 210.269 73.9947C210.269 82.0669 210.305 83.0768 210.449 86.247C210.595 89.4113 211.096 91.5713 211.831 93.4611C212.591 95.4159 213.607 97.0743 215.261 98.7265C216.914 100.38 218.574 101.398 220.528 102.157C222.421 102.892 224.583 103.393 227.749 103.538C230.922 103.682 231.935 103.717 240.013 103.717C248.091 103.717 249.102 103.682 252.275 103.538C255.441 103.393 257.606 102.892 259.498 102.157C261.453 101.398 263.11 100.38 264.763 98.7265C266.418 97.0743 267.434 95.4159 268.196 93.4617C268.928 91.5713 269.429 89.4107 269.578 86.2479C269.721 83.0774 269.758 82.0669 269.758 73.9947C269.758 65.9225 269.721 64.9096 269.578 61.739C269.429 58.5748 268.928 56.415 268.196 54.5253C267.434 52.5702 266.418 50.912 264.763 49.2599C263.109 47.6066 261.454 46.591 259.496 45.8327C257.6 45.0976 255.437 44.5966 252.27 44.4518C249.098 44.3075 248.087 44.2722 240.007 44.2722H240.016ZM237.348 49.6285C238.14 49.6273 239.024 49.6285 240.016 49.6285C247.958 49.6285 248.9 49.6569 252.036 49.7994C254.936 49.9318 256.51 50.4162 257.558 50.8228C258.946 51.3617 259.936 52.0057 260.976 53.0458C262.017 54.0859 262.662 55.0768 263.202 56.464C263.609 57.5102 264.095 59.0834 264.227 61.9812C264.369 65.1146 264.4 66.0556 264.4 73.9881C264.4 81.9199 264.369 82.8612 264.227 85.9946C264.094 88.8924 263.609 90.4653 263.202 91.5118C262.663 92.8987 262.017 93.8865 260.976 94.9261C259.935 95.9665 258.947 96.6102 257.558 97.149C256.511 97.5578 254.936 98.041 252.036 98.1734C248.9 98.3155 247.958 98.3467 240.016 98.3467C232.074 98.3467 231.133 98.3158 227.997 98.1734C225.097 98.0395 223.523 97.5554 222.474 97.1484C221.086 96.6099 220.094 95.9659 219.053 94.9254C218.012 93.8853 217.368 92.8969 216.827 91.5094C216.42 90.4629 215.935 88.89 215.803 85.9922C215.66 82.8588 215.632 81.9175 215.632 73.9805C215.632 66.0435 215.66 65.1071 215.803 61.9737C215.935 59.0758 216.42 57.5029 216.827 56.4556C217.366 55.0683 218.012 54.0775 219.053 53.0374C220.094 51.9969 221.086 51.3532 222.474 50.8129C223.522 50.4044 225.097 49.9212 227.997 49.7882C230.741 49.6642 231.804 49.6273 237.348 49.621V49.6285ZM255.894 54.5637C253.923 54.5637 252.324 56.1592 252.324 58.1291C252.324 60.0981 253.923 61.6958 255.894 61.6958C257.864 61.6958 259.463 60.0981 259.463 58.1291C259.463 56.1599 257.864 54.5625 255.894 54.5625L255.894 54.5637ZM240.016 58.7308C231.58 58.7308 224.741 65.5651 224.741 73.9947C224.741 82.4243 231.581 89.2552 240.017 89.2552C248.452 89.2552 255.289 82.4243 255.289 73.9947C255.289 65.5651 248.452 58.7308 240.016 58.7308H240.016ZM240.016 64.0872C245.492 64.0872 249.931 68.5229 249.931 73.9947C249.931 79.4663 245.492 83.9022 240.016 83.9022C234.54 83.9022 230.101 79.4663 230.101 73.9947C230.101 68.5225 234.54 64.0872 240.016 64.0872Z" fill="white"/>
</g>
<mask id="mask1_9_232" style="mask-type:luminance" maskUnits="userSpaceOnUse" x="360" y="34" width="80" height="80">
<path d="M439.232 66.5789H400.852V81.9578H422.905C422.551 84.1344 421.755 86.2755 420.589 88.2276C419.253 90.4646 417.602 92.1674 415.91 93.4642C410.84 97.3488 404.93 98.1431 400.825 98.1431C390.456 98.1431 381.597 91.4416 378.167 82.3354C378.029 82.0047 377.937 81.6634 377.825 81.3261C377.049 78.9634 376.653 76.491 376.653 74.0024C376.653 71.3473 377.101 68.8058 377.919 66.4054C381.144 56.938 390.203 49.867 400.833 49.867C402.971 49.867 405.03 50.1214 406.982 50.629C410.55 51.5544 413.832 53.3593 416.534 55.8812L428.204 44.4525C421.105 37.9439 411.852 34 400.813 34C391.989 34 383.842 36.7493 377.165 41.3962C371.751 45.1642 367.311 50.2097 364.314 56.0691C361.526 61.5023 360 67.5232 360 73.9967C360 80.4705 361.529 86.5538 364.316 91.9366V91.9729C367.26 97.6875 371.566 102.608 376.799 106.359C381.37 109.636 389.567 114 400.813 114C407.281 114 413.013 112.834 418.068 110.649C421.714 109.072 424.945 107.017 427.87 104.374C431.735 100.883 434.762 96.5637 436.829 91.595C438.895 86.6263 440 81.0072 440 74.9156C440 72.0786 439.715 69.1972 439.232 66.5789Z" fill="white"/>
</mask>
<g mask="url(#mask1_9_232)">
<g filter="url(#filter0_f_9_232)">
<path d="M359.412 74.2681C359.454 80.6397 361.269 87.2137 364.018 92.5208V92.5574C366.003 96.4115 368.717 99.4557 371.808 102.472L390.477 95.6603C386.945 93.866 386.406 92.7666 383.874 90.7604C381.287 88.1513 379.358 85.1563 378.158 81.6441H378.109L378.158 81.6076C377.367 79.2886 377.29 76.8265 377.26 74.2681H359.412Z" fill="url(#paint4_radial_9_232)"/>
</g>
<g filter="url(#filter1_f_9_232)">
<path d="M400.852 33.709C399.007 40.1918 399.712 46.4929 400.852 50.1594C402.983 50.1611 405.036 50.4149 406.982 50.9211C410.55 51.8464 413.832 53.6514 416.534 56.1733L428.503 44.4528C421.413 37.9516 412.88 33.7191 400.852 33.709Z" fill="url(#paint5_radial_9_232)"/>
</g>
<g filter="url(#filter2_f_9_232)">
<path d="M400.812 33.6578C391.761 33.6578 383.405 36.4776 376.557 41.2437C374.023 43.007 371.691 45.0484 369.604 47.3304C369.06 52.4369 373.678 58.7128 382.825 58.6607C387.262 53.4989 393.826 50.1588 401.131 50.1588L401.151 50.1594L400.853 33.659C400.839 33.659 400.826 33.6578 400.812 33.6578H400.812Z" fill="url(#paint6_radial_9_232)"/>
</g>
<g filter="url(#filter3_f_9_232)">
<path d="M430.686 76.116L422.607 81.666C422.253 83.8422 421.456 85.9834 420.29 87.9358C418.955 90.1725 417.304 91.8756 415.611 93.1724C410.552 97.0489 404.658 97.8472 400.554 97.8504C396.313 105.074 395.569 108.693 400.852 114.523C407.39 114.519 413.186 113.338 418.298 111.128C421.994 109.531 425.268 107.447 428.232 104.769C432.149 101.231 435.217 96.8541 437.311 91.8186C439.405 86.7832 440.525 81.0892 440.525 74.9156L430.686 76.116Z" fill="url(#paint7_radial_9_232)"/>
</g>
<g filter="url(#filter4_f_9_232)">
<path d="M400.256 65.9947V82.542H439.124C439.466 80.276 440.596 77.3434 440.596 74.9156C440.596 72.0786 440.312 68.6133 439.829 65.9947H400.256Z" fill="#3086FF"/>
</g>
<g filter="url(#filter5_f_9_232)">
<path d="M369.789 46.7465C367.391 49.3708 365.342 52.3083 363.717 55.4849C360.93 60.9181 359.403 67.5231 359.403 73.9967C359.403 74.0879 359.411 74.1771 359.412 74.2684C360.646 76.6351 376.463 76.1819 377.26 74.2684C377.259 74.1791 377.249 74.0919 377.249 74.0024C377.249 71.3473 377.698 69.3903 378.515 66.9899C379.524 64.0288 381.103 61.3023 383.123 58.9531C383.581 58.3686 384.802 57.1121 385.158 56.3583C385.294 56.0714 384.912 55.9103 384.89 55.8092C384.867 55.6961 384.354 55.7871 384.24 55.7028C383.875 55.4354 383.154 55.2958 382.715 55.1718C381.779 54.9067 380.227 54.3219 379.364 53.7156C376.639 51.7995 372.387 49.5104 369.789 46.7465Z" fill="url(#paint8_radial_9_232)"/>
</g>
<g filter="url(#filter6_f_9_232)">
<path d="M379.423 55.8205C385.742 59.6484 387.56 53.8883 391.761 52.0858L384.453 36.9297C381.786 38.0504 379.244 39.4494 376.867 41.1038C373.347 43.5534 370.239 46.543 367.672 49.9447L379.423 55.8205Z" fill="url(#paint9_radial_9_232)"/>
</g>
<g filter="url(#filter7_f_9_232)">
<path d="M381.995 94.4893C373.512 97.5517 372.184 97.6616 371.403 102.919C372.9 104.38 374.504 105.725 376.202 106.943C380.774 110.22 389.567 114.584 400.813 114.584C400.827 114.584 400.839 114.583 400.853 114.583V97.5583L400.826 97.5589C396.614 97.5589 393.249 96.4529 389.799 94.5293C388.948 94.055 387.404 95.3285 386.62 94.7593C385.538 93.9739 382.933 95.4356 381.995 94.4893Z" fill="url(#paint10_radial_9_232)"/>
</g>
<g opacity="0.5" filter="url(#filter8_f_9_232)">
<path d="M395.884 97.0221V114.288C397.458 114.473 399.096 114.584 400.813 114.584C402.536 114.584 404.201 114.496 405.82 114.333V97.1384C404.17 97.4184 402.499 97.5591 400.826 97.5589C399.13 97.5589 397.482 97.3614 395.884 97.0221Z" fill="url(#paint11_linear_9_232)"/>
</g>
</g>
<g clip-path="url(#clip2_9_232)">
<path d="M543.619 100.579H542.864L539.093 96.3087V95.4531L544.857 88.9242H548.85L549.383 89.5274V94.0506L543.619 100.579ZM539.093 52.2754V51.4198L542.864 47.149H543.619L549.383 53.6779V58.2011L548.85 58.8042H544.857L539.093 52.2754Z" fill="#05BDBA"/>
<path d="M572.283 86.8135H566.798L566.34 86.2945V71.7497C566.34 69.1621 565.442 67.1565 562.687 67.0864C561.269 67.0443 559.648 67.0864 557.914 67.1635L557.654 67.4651V86.2874L557.196 86.8064H551.711L551.253 86.2874V61.4414L551.711 60.9221H564.055C568.853 60.9221 572.741 65.326 572.741 70.7611V86.2945L572.283 86.8135Z" fill="white"/>
<path d="M544.399 77.5005H522.458L522 76.9816V70.754L522.458 70.235H544.399L544.857 70.754V76.9816L544.399 77.5005ZM601.542 77.5005H579.601L579.143 76.9816V70.754L579.601 70.235H601.542L602 70.754V76.9816L601.542 77.5005ZM558.836 53.1589V34.5189L559.294 34H564.792L565.25 34.5189V53.1589L564.792 53.6779H559.294L558.836 53.1589ZM558.836 113.217V94.5766L559.294 94.0577H564.792L565.25 94.5766V113.217L564.792 113.735H559.294L558.836 113.217Z" fill="#05BDBA"/>
</g>
<path d="M120.455 292H133.182V250.798L115 232.62V284.729C115 288.746 117.441 292 120.455 292V292Z" fill="#4285F4"/>
<path d="M176.818 292H189.545C192.559 292 195 288.746 195 284.729V232.62L176.818 250.798V292Z" fill="#34A853"/>
<path d="M176.818 219.291V250.798L195 232.621V222.926C195 213.94 187.305 208.808 181.909 214.201L176.818 219.291Z" fill="#FBBC04"/>
<path fill-rule="evenodd" clip-rule="evenodd" d="M133.182 250.798V219.29L155 241.103L176.818 219.29V250.798L155 272.61L133.182 250.798Z" fill="#EA4335"/>
<path d="M115 222.926V232.62L133.182 250.798V219.29L128.091 214.201C122.695 208.808 115 213.94 115 222.926V222.926Z" fill="#C5221F"/>
<path d="M335.895 221.545V281.545C335.895 288.259 341.263 292 346.947 292C352.211 292 358 288.818 358 281.545V222C358 215.845 352.737 212 346.947 212C341.158 212 335.895 216.241 335.895 221.545Z" fill="#F9AB00"/>
<path d="M306.947 252V281.545C306.947 288.259 312.316 292 318 292C323.263 292 329.053 288.818 329.053 281.545V252.455C329.053 246.3 323.789 242.455 318 242.455C312.211 242.455 306.947 246.695 306.947 252Z" fill="#E37400"/>
<path d="M289.053 292C295.157 292 300.105 287.726 300.105 282.454C300.105 277.183 295.157 272.909 289.053 272.909C282.948 272.909 278 277.183 278 282.454C278 287.726 282.948 292 289.053 292Z" fill="#E37400"/>
<path d="M466.522 286.733C469.622 287.981 472.985 288.721 476.516 288.844C481.295 289.011 485.839 288.023 489.901 286.147C485.03 284.233 480.618 281.433 476.852 277.953C474.411 281.861 470.801 284.948 466.522 286.733Z" fill="#FF9100"/>
<path d="M476.852 277.955C468.256 270.005 463.042 258.499 463.483 245.879C463.497 245.469 463.519 245.06 463.544 244.65C461.974 244.243 460.364 244.009 458.743 243.951C456.44 243.87 454.138 244.147 451.919 244.772C449.624 248.791 448.24 253.403 448.067 258.343C447.622 271.091 455.337 282.23 466.522 286.734C470.801 284.949 474.411 281.866 476.852 277.955Z" fill="#FFC400"/>
<path d="M476.852 277.954C478.85 274.756 480.062 271.007 480.203 266.967C480.574 256.341 473.431 247.2 463.544 244.65C463.519 245.059 463.497 245.469 463.483 245.879C463.042 258.499 468.257 270.005 476.852 277.954Z" fill="#FF9100"/>
<path d="M479.097 214.781C473.467 219.292 469.02 225.24 466.33 232.092C464.79 236.017 463.822 240.233 463.539 244.652C473.426 247.203 480.57 256.344 480.199 266.97C480.057 271.009 478.842 274.755 476.847 277.957C480.613 281.441 485.025 284.236 489.896 286.15C499.675 281.63 506.612 271.904 507.014 260.4C507.274 252.946 504.411 246.303 500.364 240.696C496.091 234.766 479.097 214.781 479.097 214.781Z" fill="#DD2C00"/>
<g filter="url(#filter9_d_9_232)">
<rect x="11" y="6" width="136" height="136" rx="14" stroke="white" stroke-width="2" shape-rendering="crispEdges"/>
</g>
<g filter="url(#filter10_d_9_232)">
<rect x="172" y="6" width="136" height="136" rx="14" stroke="white" stroke-width="2" shape-rendering="crispEdges"/>
</g>
<g filter="url(#filter11_d_9_232)">
<rect x="332" y="6" width="136" height="136" rx="14" stroke="white" stroke-width="2" shape-rendering="crispEdges"/>
</g>
<g filter="url(#filter12_d_9_232)">
<rect x="494" y="6" width="136" height="136" rx="14" stroke="white" stroke-width="2" shape-rendering="crispEdges"/>
</g>
<g filter="url(#filter13_d_9_232)">
<rect x="87" y="184" width="136" height="136" rx="14" stroke="white" stroke-width="2" shape-rendering="crispEdges"/>
</g>
<g filter="url(#filter14_d_9_232)">
<rect x="250" y="184" width="136" height="136" rx="14" stroke="white" stroke-width="2" shape-rendering="crispEdges"/>
</g>
<g filter="url(#filter15_d_9_232)">
<rect x="410" y="184" width="136" height="136" rx="14" stroke="white" stroke-width="2" shape-rendering="crispEdges"/>
</g>
<defs>
<filter id="filter0_f_9_232" x="358.941" y="73.7979" width="32.0063" height="29.1446" filterUnits="userSpaceOnUse" color-interpolation-filters="sRGB">
<feFlood flood-opacity="0" result="BackgroundImageFix"/>
<feBlend mode="normal" in="SourceGraphic" in2="BackgroundImageFix" result="shape"/>
<feGaussianBlur stdDeviation="0.2351" result="effect1_foregroundBlur_9_232"/>
</filter>
<filter id="filter1_f_9_232" x="399.248" y="33.2388" width="29.7256" height="23.4047" filterUnits="userSpaceOnUse" color-interpolation-filters="sRGB">
<feFlood flood-opacity="0" result="BackgroundImageFix"/>
<feBlend mode="normal" in="SourceGraphic" in2="BackgroundImageFix" result="shape"/>
<feGaussianBlur stdDeviation="0.2351" result="effect1_foregroundBlur_9_232"/>
</filter>
<filter id="filter2_f_9_232" x="369.09" y="33.1876" width="32.5306" height="25.9436" filterUnits="userSpaceOnUse" color-interpolation-filters="sRGB">
<feFlood flood-opacity="0" result="BackgroundImageFix"/>
<feBlend mode="normal" in="SourceGraphic" in2="BackgroundImageFix" result="shape"/>
<feGaussianBlur stdDeviation="0.2351" result="effect1_foregroundBlur_9_232"/>
</filter>
<filter id="filter3_f_9_232" x="396.659" y="74.4454" width="44.336" height="40.548" filterUnits="userSpaceOnUse" color-interpolation-filters="sRGB">
<feFlood flood-opacity="0" result="BackgroundImageFix"/>
<feBlend mode="normal" in="SourceGraphic" in2="BackgroundImageFix" result="shape"/>
<feGaussianBlur stdDeviation="0.2351" result="effect1_foregroundBlur_9_232"/>
</filter>
<filter id="filter4_f_9_232" x="399.786" y="65.5245" width="41.281" height="17.4877" filterUnits="userSpaceOnUse" color-interpolation-filters="sRGB">
<feFlood flood-opacity="0" result="BackgroundImageFix"/>
<feBlend mode="normal" in="SourceGraphic" in2="BackgroundImageFix" result="shape"/>
<feGaussianBlur stdDeviation="0.2351" result="effect1_foregroundBlur_9_232"/>
</filter>
<filter id="filter5_f_9_232" x="358.933" y="46.2763" width="26.7243" height="30.0719" filterUnits="userSpaceOnUse" color-interpolation-filters="sRGB">
<feFlood flood-opacity="0" result="BackgroundImageFix"/>
<feBlend mode="normal" in="SourceGraphic" in2="BackgroundImageFix" result="shape"/>
<feGaussianBlur stdDeviation="0.2351" result="effect1_foregroundBlur_9_232"/>
</filter>
<filter id="filter6_f_9_232" x="364.367" y="33.6247" width="30.6995" height="26.7873" filterUnits="userSpaceOnUse" color-interpolation-filters="sRGB">
<feFlood flood-opacity="0" result="BackgroundImageFix"/>
<feBlend mode="normal" in="SourceGraphic" in2="BackgroundImageFix" result="shape"/>
<feGaussianBlur stdDeviation="1.6525" result="effect1_foregroundBlur_9_232"/>
</filter>
<filter id="filter7_f_9_232" x="370.933" y="93.9509" width="30.3896" height="21.1035" filterUnits="userSpaceOnUse" color-interpolation-filters="sRGB">
<feFlood flood-opacity="0" result="BackgroundImageFix"/>
<feBlend mode="normal" in="SourceGraphic" in2="BackgroundImageFix" result="shape"/>
<feGaussianBlur stdDeviation="0.2351" result="effect1_foregroundBlur_9_232"/>
</filter>
<filter id="filter8_f_9_232" x="395.414" y="96.5519" width="10.8763" height="18.5025" filterUnits="userSpaceOnUse" color-interpolation-filters="sRGB">
<feFlood flood-opacity="0" result="BackgroundImageFix"/>
<feBlend mode="normal" in="SourceGraphic" in2="BackgroundImageFix" result="shape"/>
<feGaussianBlur stdDeviation="0.2351" result="effect1_foregroundBlur_9_232"/>
</filter>
<filter id="filter9_d_9_232" x="0" y="0" width="158" height="158" filterUnits="userSpaceOnUse" color-interpolation-filters="sRGB">
<feFlood flood-opacity="0" result="BackgroundImageFix"/>
<feColorMatrix in="SourceAlpha" type="matrix" values="0 0 0 0 0 0 0 0 0 0 0 0 0 0 0 0 0 0 127 0" result="hardAlpha"/>
<feOffset dy="5"/>
<feGaussianBlur stdDeviation="5"/>
<feComposite in2="hardAlpha" operator="out"/>
<feColorMatrix type="matrix" values="0 0 0 0 0 0 0 0 0 0 0 0 0 0 0 0 0 0 0.5 0"/>
<feBlend mode="normal" in2="BackgroundImageFix" result="effect1_dropShadow_9_232"/>
<feBlend mode="normal" in="SourceGraphic" in2="effect1_dropShadow_9_232" result="shape"/>
</filter>
<filter id="filter10_d_9_232" x="161" y="0" width="158" height="158" filterUnits="userSpaceOnUse" color-interpolation-filters="sRGB">
<feFlood flood-opacity="0" result="BackgroundImageFix"/>
<feColorMatrix in="SourceAlpha" type="matrix" values="0 0 0 0 0 0 0 0 0 0 0 0 0 0 0 0 0 0 127 0" result="hardAlpha"/>
<feOffset dy="5"/>
<feGaussianBlur stdDeviation="5"/>
<feComposite in2="hardAlpha" operator="out"/>
<feColorMatrix type="matrix" values="0 0 0 0 0 0 0 0 0 0 0 0 0 0 0 0 0 0 0.5 0"/>
<feBlend mode="normal" in2="BackgroundImageFix" result="effect1_dropShadow_9_232"/>
<feBlend mode="normal" in="SourceGraphic" in2="effect1_dropShadow_9_232" result="shape"/>
</filter>
<filter id="filter11_d_9_232" x="321" y="0" width="158" height="158" filterUnits="userSpaceOnUse" color-interpolation-filters="sRGB">
<feFlood flood-opacity="0" result="BackgroundImageFix"/>
<feColorMatrix in="SourceAlpha" type="matrix" values="0 0 0 0 0 0 0 0 0 0 0 0 0 0 0 0 0 0 127 0" result="hardAlpha"/>
<feOffset dy="5"/>
<feGaussianBlur stdDeviation="5"/>
<feComposite in2="hardAlpha" operator="out"/>
<feColorMatrix type="matrix" values="0 0 0 0 0 0 0 0 0 0 0 0 0 0 0 0 0 0 0.5 0"/>
<feBlend mode="normal" in2="BackgroundImageFix" result="effect1_dropShadow_9_232"/>
<feBlend mode="normal" in="SourceGraphic" in2="effect1_dropShadow_9_232" result="shape"/>
</filter>
<filter id="filter12_d_9_232" x="483" y="0" width="158" height="158" filterUnits="userSpaceOnUse" color-interpolation-filters="sRGB">
<feFlood flood-opacity="0" result="BackgroundImageFix"/>
<feColorMatrix in="SourceAlpha" type="matrix" values="0 0 0 0 0 0 0 0 0 0 0 0 0 0 0 0 0 0 127 0" result="hardAlpha"/>
<feOffset dy="5"/>
<feGaussianBlur stdDeviation="5"/>
<feComposite in2="hardAlpha" operator="out"/>
<feColorMatrix type="matrix" values="0 0 0 0 0 0 0 0 0 0 0 0 0 0 0 0 0 0 0.5 0"/>
<feBlend mode="normal" in2="BackgroundImageFix" result="effect1_dropShadow_9_232"/>
<feBlend mode="normal" in="SourceGraphic" in2="effect1_dropShadow_9_232" result="shape"/>
</filter>
<filter id="filter13_d_9_232" x="76" y="178" width="158" height="158" filterUnits="userSpaceOnUse" color-interpolation-filters="sRGB">
<feFlood flood-opacity="0" result="BackgroundImageFix"/>
<feColorMatrix in="SourceAlpha" type="matrix" values="0 0 0 0 0 0 0 0 0 0 0 0 0 0 0 0 0 0 127 0" result="hardAlpha"/>
<feOffset dy="5"/>
<feGaussianBlur stdDeviation="5"/>
<feComposite in2="hardAlpha" operator="out"/>
<feColorMatrix type="matrix" values="0 0 0 0 0 0 0 0 0 0 0 0 0 0 0 0 0 0 0.5 0"/>
<feBlend mode="normal" in2="BackgroundImageFix" result="effect1_dropShadow_9_232"/>
<feBlend mode="normal" in="SourceGraphic" in2="effect1_dropShadow_9_232" result="shape"/>
</filter>
<filter id="filter14_d_9_232" x="239" y="178" width="158" height="158" filterUnits="userSpaceOnUse" color-interpolation-filters="sRGB">
<feFlood flood-opacity="0" result="BackgroundImageFix"/>
<feColorMatrix in="SourceAlpha" type="matrix" values="0 0 0 0 0 0 0 0 0 0 0 0 0 0 0 0 0 0 127 0" result="hardAlpha"/>
<feOffset dy="5"/>
<feGaussianBlur stdDeviation="5"/>
<feComposite in2="hardAlpha" operator="out"/>
<feColorMatrix type="matrix" values="0 0 0 0 0 0 0 0 0 0 0 0 0 0 0 0 0 0 0.5 0"/>
<feBlend mode="normal" in2="BackgroundImageFix" result="effect1_dropShadow_9_232"/>
<feBlend mode="normal" in="SourceGraphic" in2="effect1_dropShadow_9_232" result="shape"/>
</filter>
<filter id="filter15_d_9_232" x="399" y="178" width="158" height="158" filterUnits="userSpaceOnUse" color-interpolation-filters="sRGB">
<feFlood flood-opacity="0" result="BackgroundImageFix"/>
<feColorMatrix in="SourceAlpha" type="matrix" values="0 0 0 0 0 0 0 0 0 0 0 0 0 0 0 0 0 0 127 0" result="hardAlpha"/>
<feOffset dy="5"/>
<feGaussianBlur stdDeviation="5"/>
<feComposite in2="hardAlpha" operator="out"/>
<feColorMatrix type="matrix" values="0 0 0 0 0 0 0 0 0 0 0 0 0 0 0 0 0 0 0.5 0"/>
<feBlend mode="normal" in2="BackgroundImageFix" result="effect1_dropShadow_9_232"/>
<feBlend mode="normal" in="SourceGraphic" in2="effect1_dropShadow_9_232" result="shape"/>
</filter>
<radialGradient id="paint0_radial_9_232" cx="0" cy="0" r="1" gradientTransform="matrix(-49.1969 13.8747 -9.99619 -35.444 277.417 71.4967)" gradientUnits="userSpaceOnUse">
<stop stop-color="#FF005F"/>
<stop offset="1" stop-color="#FC01D8"/>
</radialGradient>
<radialGradient id="paint1_radial_9_232" cx="0" cy="0" r="1" gradientUnits="userSpaceOnUse" gradientTransform="translate(221.249 120.162) rotate(-90) scale(63.8582 67.7522)">
<stop stop-color="#FFCC00"/>
<stop offset="0.124" stop-color="#FFCC00"/>
<stop offset="0.567" stop-color="#FE4A05"/>
<stop offset="0.694" stop-color="#FF0F3F"/>
<stop offset="1" stop-color="#FE0657" stop-opacity="0"/>
</radialGradient>
<radialGradient id="paint2_radial_9_232" cx="0" cy="0" r="1" gradientTransform="matrix(13.2546 -22.838 29.7325 17.256 242.021 112.872)" gradientUnits="userSpaceOnUse">
<stop stop-color="#FFCC00"/>
<stop offset="1" stop-color="#FFCC00" stop-opacity="0"/>
</radialGradient>
<radialGradient id="paint3_radial_9_232" cx="0" cy="0" r="1" gradientTransform="matrix(-48.6564 13.7008 -4.66666 -16.5775 210.854 37.2573)" gradientUnits="userSpaceOnUse">
<stop stop-color="#780CFF"/>
<stop offset="1" stop-color="#820BFF" stop-opacity="0"/>
</radialGradient>
<radialGradient id="paint4_radial_9_232" cx="0" cy="0" r="1" gradientTransform="matrix(-1.66236 -39.8398 59.7702 -2.39073 390.104 101.872)" gradientUnits="userSpaceOnUse">
<stop offset="0.142" stop-color="#1ABD4D"/>
<stop offset="0.248" stop-color="#6EC30D"/>
<stop offset="0.312" stop-color="#8AC502"/>
<stop offset="0.366" stop-color="#A2C600"/>
<stop offset="0.446" stop-color="#C8C903"/>
<stop offset="0.54" stop-color="#EBCB03"/>
<stop offset="0.616" stop-color="#F7CD07"/>
<stop offset="0.699" stop-color="#FDCD04"/>
<stop offset="0.771" stop-color="#FDCE05"/>
<stop offset="0.861" stop-color="#FFCE0A"/>
</radialGradient>
<radialGradient id="paint5_radial_9_232" cx="0" cy="0" r="1" gradientUnits="userSpaceOnUse" gradientTransform="translate(427.383 55.3255) scale(28.2318 35.6973)">
<stop offset="0.408" stop-color="#FB4E5A"/>
<stop offset="1" stop-color="#FF4540"/>
</radialGradient>
<radialGradient id="paint6_radial_9_232" cx="0" cy="0" r="1" gradientTransform="matrix(-39.5552 21.4497 29.7291 52.5533 411.965 28.4904)" gradientUnits="userSpaceOnUse">
<stop offset="0.231" stop-color="#FF4541"/>
<stop offset="0.312" stop-color="#FF4540"/>
<stop offset="0.458" stop-color="#FF4640"/>
<stop offset="0.54" stop-color="#FF473F"/>
<stop offset="0.699" stop-color="#FF5138"/>
<stop offset="0.771" stop-color="#FF5B33"/>
<stop offset="0.861" stop-color="#FF6C29"/>
<stop offset="1" stop-color="#FF8C18"/>
</radialGradient>
<radialGradient id="paint7_radial_9_232" cx="0" cy="0" r="1" gradientTransform="matrix(-71.7347 -91.6826 -34.5654 25.9252 401.44 109.345)" gradientUnits="userSpaceOnUse">
<stop offset="0.132" stop-color="#0CBA65"/>
<stop offset="0.21" stop-color="#0BB86D"/>
<stop offset="0.297" stop-color="#09B479"/>
<stop offset="0.396" stop-color="#08AD93"/>
<stop offset="0.477" stop-color="#0AA6A9"/>
<stop offset="0.568" stop-color="#0D9CC6"/>
<stop offset="0.667" stop-color="#1893DD"/>
<stop offset="0.769" stop-color="#258BF1"/>
<stop offset="0.859" stop-color="#3086FF"/>
</radialGradient>
<radialGradient id="paint8_radial_9_232" cx="0" cy="0" r="1" gradientTransform="matrix(-5.07653 42.8407 60.5003 6.87235 397.347 41.2136)" gradientUnits="userSpaceOnUse">
<stop offset="0.366" stop-color="#FF4E3A"/>
<stop offset="0.458" stop-color="#FF8A1B"/>
<stop offset="0.54" stop-color="#FFA312"/>
<stop offset="0.616" stop-color="#FFB60C"/>
<stop offset="0.771" stop-color="#FFCD0A"/>
<stop offset="0.861" stop-color="#FECF0A"/>
<stop offset="0.915" stop-color="#FECF08"/>
<stop offset="1" stop-color="#FDCD01"/>
</radialGradient>
<radialGradient id="paint9_radial_9_232" cx="0" cy="0" r="1" gradientTransform="matrix(-14.6735 15.889 -45.7734 -40.5217 390.209 40.7688)" gradientUnits="userSpaceOnUse">
<stop offset="0.316" stop-color="#FF4C3C"/>
<stop offset="0.604" stop-color="#FF692C"/>
<stop offset="0.727" stop-color="#FF7825"/>
<stop offset="0.885" stop-color="#FF8D1B"/>
<stop offset="1" stop-color="#FF9F13"/>
</radialGradient>
<radialGradient id="paint10_radial_9_232" cx="0" cy="0" r="1" gradientTransform="matrix(-39.5552 -21.4497 29.7291 -52.5533 411.965 119.508)" gradientUnits="userSpaceOnUse">
<stop offset="0.231" stop-color="#0FBC5F"/>
<stop offset="0.312" stop-color="#0FBC5F"/>
<stop offset="0.366" stop-color="#0FBC5E"/>
<stop offset="0.458" stop-color="#0FBC5D"/>
<stop offset="0.54" stop-color="#12BC58"/>
<stop offset="0.699" stop-color="#28BF3C"/>
<stop offset="0.771" stop-color="#38C02B"/>
<stop offset="0.861" stop-color="#52C218"/>
<stop offset="0.915" stop-color="#67C30F"/>
<stop offset="1" stop-color="#86C504"/>
</radialGradient>
<linearGradient id="paint11_linear_9_232" x1="395.884" y1="105.803" x2="405.82" y2="105.803" gradientUnits="userSpaceOnUse">
<stop stop-color="#0FBC5C"/>
<stop offset="1" stop-color="#0CBA65"/>
</linearGradient>
<clipPath id="clip0_9_232">
<rect width="80" height="80" fill="white" transform="translate(39 34)"/>
</clipPath>
<clipPath id="clip1_9_232">
<rect width="80" height="80" fill="white" transform="translate(200 34)"/>
</clipPath>
<clipPath id="clip2_9_232">
<rect width="80" height="80" fill="white" transform="translate(522 34)"/>
</clipPath>
</defs>
</svg>
